# xmcd
#
# Track frame offsets:
#	183
#	11138
#	21768
#	32588
#	46253
#	60128
#	72880
#	86890
#	100825
#	114283
#	127085
#	140915
#	154525
#	163503
#
# Disc length: 2337
#
# Revision: 3
# Processed by: cddbd v1.5.1PL0 Copyright (c) Steve Scherf et al.
# Submitted via: audiograbber 1.83.01
# Normalized: r2:DSETVAR1
#
DISCID=b1091f0e
DTITLE=Various Artist - Classic Country, 6 (Six)
DYEAR=1900
DGENRE=Country
TTITLE0=Porter Waggoner - Green Green Grass Of Home
TTITLE1=Connie Smith - Once A Day
TTITLE2=Ronnie Milsap - Pure Love
TTITLE3=Willie Nelson - Fire And Rain
TTITLE4=Jim Ed Brown and Helen Cornelius - You Don't Bring Me Flowers
TTITLE5=Dottie West - Would You Hold It Against Me
TTITLE6=Dolly Parton - My Tennessee Mountain Home
TTITLE7=John Hartford - Gentle On My Mind
TTITLE8=Michael Nesmith - I Fall To Pieces
TTITLE9=Norman Jean - Let's Go All The Way
TTITLE10=Mickey Newbury - Funny, Familiar, Forgotten Feelings
TTITLE11=Pee Wee King - Tennessee Waltz
TTITLE12=Danny Davis and The Nashville Brass - Wabash Cannonball
TTITLE13=Bill Monroe and The Bluegrass Boys - Orange Blossom Special
EXTD=
EXTT0=
EXTT1=
EXTT2=
EXTT3=
EXTT4=
EXTT5=
EXTT6=
EXTT7=
EXTT8=
EXTT9=
EXTT10=
EXTT11=
EXTT12=
EXTT13=
PLAYORDER=
